<?xml version="1.0" standalone="no"?> <!DOCTYPE svg PUBLIC "-//W3C//DTD SVG 1.0//EN" "http://www.w3.org/TR/2001/REC-SVG-20010904/DTD/svg10.dtd" > <svg xmlns="http://www.w3.org/2000/svg" width="100%" height="100%">
<defs >
<font id="metaplus-mediumitalic" horiz-adv-x="869" ><font-face
    font-family="MetaPlus"
    units-per-em="2048"
    panose-1="2 0 6 3 0 0 0 0 0 0"
    ascent="1895"
    descent="-444"
    alphabetic="0" />
<missing-glyph horiz-adv-x="500" />
<glyph unicode=" " glyph-name="space" horiz-adv-x="460" />
<glyph unicode="!" glyph-name="exclam" horiz-adv-x="579" d="M623 1444L358 432H186L342 1407L623 1444ZM362 131Q362 68 318 24T211 -20Q150 -20 107 23T63 129Q63 192 106 236T213 281Q274 281 318 237T362 131Z" />
<glyph unicode="&quot;" glyph-name="quotedbl" horiz-adv-x="1064" d="M1044 1450L930 909H721L834 1450H1044ZM645 1450L530 909H319L434 1450H645Z" />
<glyph unicode="#" glyph-name="numbersign" horiz-adv-x="1148" d="M1176 866H956L866 586H1038V422H817L684 0H512L645 422H418L285 0H113L246 422H76V586H297L385 866H213V1030H434L565 1450H737L606 1030H831L965 1450H1135L1004 1030H1176V866ZM784 866H557L469
586H694L784 866Z" />
<glyph unicode="$" glyph-name="dollar" horiz-adv-x="1177" d="M516 -25L477 -203H330L367 -27Q156 -18 -14 92L106 274Q195 218 276 192T461 166Q610 166 699 237T788 422Q788 490 750 534T621 614L479 668Q351 716 290 788T229 981Q229 1163 368 1294T719 1448L754
1608H901L868 1448Q1077 1432 1212 1319L1077 1153Q1004 1208 931 1232T764 1257Q649 1257 571 1198T492 1053Q492 989 525 949T643 877L801 819Q934 770 996 689T1059 483Q1059 285 913 143T516 -25Z" />
<glyph unicode="%" glyph-name="percent" horiz-adv-x="2048" d="M1509 1415L487 0H305L1325 1415H1509ZM1628 428Q1628 235 1511 109T1200 -18Q1072 -18 999 47T926 231Q926 431 1046 558T1350 686Q1482 686 1555 616T1628 428ZM1442 430Q1442 492 1413 521T1323
551Q1220 551 1166 462T1112 227Q1112 167 1142 142T1235 117Q1331 117 1386 207T1442 430ZM881 1176Q881 983 764 856T453 729Q325 729 252 793T178 979Q178 1179 298 1306T602 1434Q734 1434 807 1363T881 1176ZM694 1178Q694 1240 665 1269T575 1298Q472 1298
419 1209T365 975Q365 915 396 890T487 864Q585 864 639 954T694 1178Z" />
<glyph unicode="&amp;" glyph-name="ampersand" horiz-adv-x="1447" d="M1313 0H1016L930 109Q757 -29 504 -29Q304 -29 191 58T78 291Q78 565 430 711Q365 776 340 834T315 961Q315 1122 447 1239T780 1356Q929 1356 1020 1285T1112 1104Q1112 988 1048 900T829
733L756 696L973 428Q1003 467 1030 562T1061 690H1251Q1205 439 1090 276L1313 0ZM879 1020T879 1075T843 1163T748 1196Q673 1196 612 1144T551 1016Q551 963 570 923T651 815Q791 872 840 954Q879 1020 879 1075ZM823 238L532 588Q427 538 376 472T324 315Q324
235 382 186T545 137Q629 137 702 164T823 238Z" />
<glyph unicode="&apos;" glyph-name="quotesingle" horiz-adv-x="589" d="M606 1450L492 909H283L395 1450H606Z" />
<glyph unicode="(" glyph-name="parenleft" horiz-adv-x="708" d="M926 1454Q791 1375 719 1310T588 1151Q498 1004 420 666Q360 408 360 225Q360 65 406 -36T565 -211L483 -334Q321 -265 230 -118T139 242Q139 432 188 659Q241 904 329 1079T551 1378Q702 1517
889 1589L926 1454Z" />
<glyph unicode=")" glyph-name="parenright" horiz-adv-x="700" d="M606 1018Q606 820 559 602Q507 358 419 184T195 -119Q39 -264 -145 -330L-178 -188Q-40 -108 32 -45T160 111Q261 280 330 598Q385 860 385 1038Q385 1194 341 1298T186 1473L266 1593Q427 1522
516 1377T606 1018Z" />
<glyph unicode="*" glyph-name="asterisk" horiz-adv-x="952" d="M1026 1087L750 997L924 760L784 655L606 897L436 662L297 766L471 997L193 1094L246 1255L524 1157V1450H696V1157L975 1249L1026 1087Z" />
<glyph unicode="+" glyph-name="plus" horiz-adv-x="1177" d="M1130 678L1085 469H692L606 66H379L465 469H72L117 678H510L596 1081H821L735 678H1130Z" />
<glyph unicode="," glyph-name="comma" horiz-adv-x="546" d="M367 100Q367 29 331 -42T233 -172Q139 -260 20 -297L-47 -193Q22 -166 71 -124T121 -49Q121 -29 88 -8Q58 9 41 44T23 123Q23 196 72 244T193 293Q271 293 319 241T367 100Z" />
<glyph unicode="-" glyph-name="hyphen" horiz-adv-x="659" d="M594 653L551 457H102L145 653H594Z" />
<glyph unicode="." glyph-name="period" horiz-adv-x="546" d="M362 135Q362 66 315 18T201 -31Q134 -31 87 17T39 135Q39 201 86 247T199 293Q267 293 314 247T362 135Z" />
<glyph unicode="/" glyph-name="slash" horiz-adv-x="792" d="M1053 1559L115 -309H-53L883 1559H1053Z" />
<glyph unicode="0" glyph-name="zero" horiz-adv-x="1110" d="M1061 666Q1061 513 996 357T821 106Q664 -29 451 -29Q268 -29 172 70T76 358Q76 505 134 657T293 903Q457 1057 682 1057Q866 1057 963 958T1061 666ZM819 694Q819 798 776 842T645 887Q530 887 446
784Q386 708 351 577T315 338Q315 233 359 187T489 141Q600 141 682 238Q747 315 783 444T819 694Z" />
<glyph unicode="1" glyph-name="one" horiz-adv-x="841" d="M715 1055L528 182H711L672 0H63L102 182H309L438 793Q278 703 156 659L123 795L555 1055H715Z" />
<glyph unicode="2" glyph-name="two" horiz-adv-x="1101" d="M1020 809Q1020 616 805 455Q683 363 500 260L352 178Q446 186 573 186H938L850 0H27L70 197Q358 357 502 452T700 613T754 748Q754 874 596 874Q472 874 274 735L178 874Q312 976 436 1024T696 1073Q845
1073 932 1000T1020 809Z" />
<glyph unicode="3" glyph-name="three" horiz-adv-x="1064" d="M965 784Q965 662 887 562T670 416Q763 398 817 325T872 162Q872 53 814 -45T650 -216T390 -332T53 -375Q-25 -375 -86 -367L-106 -203Q-55 -213 25 -213Q308 -213 461 -100Q531 -49 572 22T614 164Q614
283 506 315Q473 326 436 329T313 332H244L283 512Q325 506 369 506Q523 506 588 539Q649 569 682 624T715 741Q715 804 670 840T545 877Q393 877 205 756L121 893Q376 1065 614 1065Q772 1065 868 986T965 784Z" />
<glyph unicode="4" glyph-name="four" horiz-adv-x="1110" d="M981 188L940 0H838L780 2Q780 -27 772 -66L709 -360L485 -399L557 -61L573 4Q535 0 500 0H-37L-2 160L616 1055H854L367 346Q344 311 300 254T242 182Q272 188 301 188H547L616 186Q625 227 627 233Q637
299 680 438L758 698L944 741L862 358Q848 291 836 244L821 186Q860 188 889 188H981Z" />
<glyph unicode="5" glyph-name="five" horiz-adv-x="1048" d="M975 1036L901 846H481L379 512Q448 522 498 522Q669 522 765 423T848 164Q826 -72 620 -224T113 -377Q27 -377 -37 -360L-47 -188Q37 -217 121 -217Q311 -217 445 -115T598 135Q610 231 548 288T375
346Q211 346 96 307L317 1036H975Z" />
<glyph unicode="6" glyph-name="six" horiz-adv-x="1126" d="M1087 1284Q752 1182 569 985Q485 895 418 764Q535 848 690 848Q839 848 936 754T1034 512Q1034 361 958 236T753 41T471 -29Q285 -29 182 83T78 391Q78 595 176 782T457 1128Q582 1237 748 1322T1069
1450L1087 1284ZM791 485Q791 575 745 622T616 670Q504 670 358 584Q315 468 315 362Q315 262 366 203T504 143Q625 143 708 242T791 485Z" />
<glyph unicode="7" glyph-name="seven" horiz-adv-x="1007" d="M1044 1034L993 829Q959 792 900 720T744 518T560 255T388 -38T260 -332L-14 -397Q93 -105 328 260T780 842Q759 836 651 836H123L203 1034H1044Z" />
<glyph unicode="8" glyph-name="eight" horiz-adv-x="1165" d="M1141 1220T1141 1100T1049 877T805 723Q847 707 897 676Q965 637 1007 571T1049 430Q1049 335 1009 251T895 101T706 -1T451 -39Q258 -39 153 49T47 283Q47 427 144 539T391 707Q316 742 275 806T233
948Q233 1134 385 1255T772 1376Q942 1376 1041 1298ZM903 1081Q903 1143 855 1177T719 1212Q607 1212 535 1154T463 999Q463 941 505 901T653 809Q903 920 903 1081ZM801 385Q801 457 747 503T532 618Q420 571 356 493T291 309Q291 226 348 178T508 129Q641 129
721 204T801 385Z" />
<glyph unicode="9" glyph-name="nine" horiz-adv-x="1128" d="M1051 672Q1051 454 944 249T637 -121Q508 -227 349 -306T41 -420L-49 -279Q97 -247 243 -170T502 12T666 223Q553 154 428 154Q281 154 188 255T94 512Q94 668 172 796T381 997T666 1069Q847 1069
949 966T1051 672ZM809 678Q809 778 760 836T625 895Q505 895 423 791T340 532Q340 441 387 388T516 334Q629 334 748 424Q809 568 809 678Z" />
<glyph unicode=":" glyph-name="colon" horiz-adv-x="620" d="M371 918Q437 918 483 871T530 758Q530 691 484 644T371 596Q304 596 258 643T211 758Q211 824 257 871T371 918ZM169 291T236 291T350 244T397 131Q397 64 350 17T238 -31Q170 -31 123 16T76 131Q76
197 122 244Z" />
<glyph unicode=";" glyph-name="semicolon" horiz-adv-x="630" d="M365 918Q432 918 479 871T526 758Q526 691 480 644T367 596Q299 596 253 643T207 758Q207 824 253 871T365 918ZM408 100Q408 29 372 -42T274 -172Q179 -260 61 -297L-6 -193Q67 -165 116 -125T166
-45Q166 -31 129 -8Q99 9 81 44T63 123Q63 196 112 244T233 293Q311 293 359 241T408 100Z" />
<glyph unicode="&lt;" glyph-name="less" horiz-adv-x="2568" d="M2445 656T2445 598T2404 500T2306 459Q2248 459 2208 499T2167 598T2207 696T2306 737Q2363 737 2404 697ZM2030 656T2030 598T1990 500T1890 459Q1833 459 1792 499T1751 598T1792 696T1890 737Q1949
737 1989 697ZM1171 1460Q1171 1401 1131 1360T1032 1319T934 1360T893 1460Q893 1517 933 1558T1032 1599T1130 1558T1171 1460ZM1616 656T1616 598T1576 500T1477 459Q1418 459 1378 499T1337 598T1377 696T1477 737Q1535 737 1575 697ZM905 1171Q905 1115 864
1074T766 1032Q708 1032 668 1073T627 1171Q627 1230 667 1271T766 1313Q823 1313 864 1271T905 1171ZM1202 656T1202 598T1161 500T1061 459Q1004 459 963 499T922 598T963 696T1061 737Q1120 737 1161 697ZM639 885Q639 828 598 787T500 745Q442 745 400 786T358
885Q358 943 399 983T500 1024Q557 1024 598 984T639 885ZM786 656T786 598T746 500T647 459T548 499T508 598T548 696T647 737T746 697ZM373 656T373 598T332 500T231 459Q174 459 133 499T92 598T133 696T231 737Q290 737 331 697ZM532 311Q532 253 491 213T393
172Q334 172 293 212T252 311Q252 368 293 409T393 451Q450 451 491 410T532 311ZM692 25Q692 -33 651 -75T553 -117Q495 -117 455 -76T414 25Q414 82 454 123T553 164Q610 164 651 123T692 25ZM852 -264Q852 -321 812 -362T713 -403T614 -362T573 -264Q573 -206
613 -166T713 -125T812 -165T852 -264Z" />
<glyph unicode="=" glyph-name="equal" horiz-adv-x="1363" d="M1323 911L1280 707H180L223 911H1323ZM1241 535L1200 330H100L143 535H1241Z" />
<glyph unicode="&gt;" glyph-name="greater" horiz-adv-x="2568" d="M90 540T90 598T131 696T229 737Q288 737 328 697T369 598T329 500T229 459Q172 459 131 499ZM506 540T506 598T546 696T645 737Q702 737 743 697T784 598T743 500T645 459Q586 459 546 499ZM1683
1460Q1683 1517 1724 1558T1823 1599T1921 1558T1962 1460Q1962 1401 1922 1360T1823 1319T1724 1360T1683 1460ZM920 540T920 598T960 696T1059 737T1158 697T1198 598T1158 500T1059 459T960 499ZM1843 1171Q1843 1229 1884 1271T1982 1313Q2040 1313 2081 1272T2122
1171Q2122 1114 2081 1073T1982 1032Q1926 1032 1885 1073T1843 1171ZM1333 540T1333 598T1374 696T1475 737Q1532 737 1573 697T1614 598T1573 500T1475 459Q1416 459 1375 499ZM2003 885Q2003 943 2044 983T2142 1024Q2201 1024 2242 984T2284 885Q2284 828 2242
787T2142 745Q2085 745 2044 786T2003 885ZM1749 540T1749 598T1789 696T1888 737Q1947 737 1987 697T2028 598T1988 500T1888 459Q1830 459 1790 499ZM2163 540T2163 598T2204 696T2304 737Q2361 737 2402 697T2443 598T2402 500T2304 459Q2245 459 2204 499ZM1896
311Q1896 368 1937 409T2036 451Q2094 451 2135 410T2177 311Q2177 253 2136 213T2036 172Q1979 172 1938 212T1896 311ZM1630 25Q1630 81 1671 122T1769 164Q1827 164 1868 123T1909 25Q1909 -34 1868 -75T1769 -117Q1713 -117 1672 -75T1630 25ZM1364 -264Q1364
-206 1404 -166T1503 -125T1602 -165T1642 -264Q1642 -321 1602 -362T1503 -403T1405 -362T1364 -264Z" />
<glyph unicode="?" glyph-name="question" horiz-adv-x="880" d="M963 1159Q963 951 705 793Q643 756 600 714T534 625T499 536T485 442H293Q281 739 549 901Q638 956 684 1005T731 1114Q731 1178 691 1210T582 1243Q532 1243 480 1226T396 1191T317 1143L246
1292Q438 1436 647 1436Q794 1436 878 1360T963 1159ZM496 129Q496 66 452 22T344 -23Q283 -23 240 21T197 129Q197 191 241 235T348 279Q409 279 452 235T496 129Z" />
<glyph unicode="@" glyph-name="at" horiz-adv-x="1638" d="M1618 834Q1603 719 1558 624T1454 470T1328 369T1202 310T1094 293Q1032 293 998 326T956 408H954Q902 357 852 329T737 301Q623 301 556 377T489 582Q489 707 534 825T653 1018Q780 1145 958 1145Q1074
1145 1137 1063H1141L1176 1110L1282 1094Q1264 1038 1221 877L1143 567Q1131 521 1141 485Q1149 457 1186 457Q1270 457 1348 561T1446 823Q1466 981 1406 1099T1230 1276T963 1335Q826 1335 701 1277T487 1123T346 901T293 641Q293 488 364 368T561 181T844 115Q973
115 1094 162T1303 293H1513Q1393 139 1201 51T811 -37Q659 -37 529 13T308 152T166 367T115 639Q115 769 157 895T278 1127T463 1314T705 1441T989 1487Q1127 1487 1249 1441T1461 1313T1593 1106T1618 834ZM1034 897Q1030 932 1003 957T944 983Q867 983 803 922Q747
867 717 774T684 592Q682 533 709 498T784 463Q805 463 824 470T865 495T898 524T930 557Q958 586 998 723T1034 897Z" />
<glyph unicode="A" glyph-name="A" horiz-adv-x="1179" d="M1083 0H836L803 379H338L141 0H-111L659 1417H930L1083 0ZM784 573L758 901L739 1178Q676 1036 631 948L438 573H784Z" />
<glyph unicode="B" glyph-name="B" horiz-adv-x="1232" d="M1219 1108Q1219 986 1141 889T909 750Q1018 729 1076 652T1135 465Q1135 383 1095 294T981 135Q900 60 801 30T526 0H76L379 1415H821Q1019 1415 1119 1335T1219 1108ZM961 1061Q961 1140 916 1178T762
1217H565L485 831H690Q810 831 872 881Q961 951 961 1061ZM877 467Q877 555 826 596T653 637H444L350 193H575Q690 193 768 248Q815 281 846 341T877 467Z" />
<glyph unicode="C" glyph-name="C" horiz-adv-x="1112" d="M1237 1327L1102 1174Q1013 1253 872 1253Q780 1253 697 1207T549 1077Q466 972 416 792T365 471Q365 320 438 241T651 162Q720 162 784 185T928 258L1012 102Q819 -25 588 -25Q363 -25 236 109T109 479Q109
653 171 839T340 1159Q447 1294 597 1367T907 1440Q1009 1440 1096 1410T1237 1327Z" />
<glyph unicode="D" glyph-name="D" horiz-adv-x="1292" d="M1260 915Q1260 730 1184 523T985 195Q877 88 754 44T432 0H76L379 1415H694Q872 1415 971 1390T1139 1290Q1200 1225 1230 1136T1260 915ZM1006 909Q1006 1053 961 1126Q924 1182 869 1205T723 1229H575L356
193H502Q721 193 827 340Q889 426 932 545T990 754T1006 909Z" />
<glyph unicode="E" glyph-name="E" horiz-adv-x="1077" d="M1169 1415L1098 1223H573L494 836H930L889 641H453L360 203H932L889 0H76L379 1415H1169Z" />
<glyph unicode="F" glyph-name="F" horiz-adv-x="952" d="M1137 1415L1065 1225H575L494 840H893L852 647H453L315 0H76L379 1415H1137Z" />
<glyph unicode="G" glyph-name="G" horiz-adv-x="1286" d="M1300 1284L1159 1141Q1046 1243 877 1243Q717 1243 598 1130Q496 1032 433 829T369 467Q369 315 447 239T664 162Q781 162 860 205L940 573H696V766H1217L1073 92Q865 -20 608 -20Q375 -20 244 116T113
475Q113 700 199 909T426 1245Q540 1346 654 1390T911 1434Q1156 1434 1300 1284Z" />
<glyph unicode="H" glyph-name="H" horiz-adv-x="1308" d="M1337 1415L1034 0H799L938 655H449L309 0H76L379 1415H610L489 848H977L1100 1415H1337Z" />
<glyph unicode="I" glyph-name="I" horiz-adv-x="602" d="M616 1415L315 0H76L379 1415H616Z" />
<glyph unicode="J" glyph-name="J" horiz-adv-x="598" d="M623 1415L377 260Q367 214 361 189T344 122T323 56T297 -4T264 -65T222 -119T169 -172T104 -220T23 -266T-74 -307L-156 -174Q-58 -123 -7 -76T76 43T133 242L381 1415H623Z" />
<glyph unicode="K" glyph-name="K" horiz-adv-x="1220" d="M1354 1395L725 743L1096 10L813 -14L467 752L1096 1436L1354 1395ZM608 1415L307 0H68L369 1415H608Z" />
<glyph unicode="L" glyph-name="L" horiz-adv-x="972" d="M887 197L807 0H76L379 1415H616L358 197H887Z" />
<glyph unicode="M" glyph-name="M" horiz-adv-x="1687" d="M1630 1415L1454 0H1225L1346 877Q1367 1034 1386 1116Q1347 1021 1284 895L836 0H635L584 856Q573 1017 575 1118Q564 1068 506 854L262 0H29L459 1415H770L817 614Q824 493 819 379Q868 503 920 610L1315
1415H1630Z" />
<glyph unicode="N" glyph-name="N" horiz-adv-x="1323" d="M1343 1415L1042 0H799L610 682Q523 1004 516 1096Q500 964 449 698L309 0H76L379 1415H639L846 702Q894 541 918 344Q935 518 983 754L1116 1415H1343Z" />
<glyph unicode="O" glyph-name="O" horiz-adv-x="1361" d="M1356 940Q1356 673 1243 426T942 70Q782 -25 584 -25Q348 -25 233 110T117 481Q117 736 213 950T453 1284Q540 1357 641 1396T891 1436Q1113 1436 1234 1305T1356 940ZM1094 981Q1094 1253 848 1253Q762
1253 688 1215T563 1110Q479 1000 426 809T373 438Q373 291 436 224T625 156Q776 156 879 268Q972 372 1033 588T1094 981Z" />
<glyph unicode="P" glyph-name="P" horiz-adv-x="1177" d="M1225 1090Q1225 937 1162 821T989 635Q902 581 819 560T621 539H428L313 0H76L379 1415H748Q988 1415 1096 1341Q1158 1299 1191 1233T1225 1090ZM971 1042Q971 1132 919 1177T752 1223H573L469 731H653Q803
731 872 803Q918 850 944 913T971 1042Z" />
<glyph unicode="Q" glyph-name="Q" horiz-adv-x="1359" d="M1354 940Q1354 701 1267 479T1024 125Q956 67 881 33Q917 19 1012 -43Q1047 -66 1099 -84T1202 -102Q1225 -102 1251 -100T1293 -96T1311 -92L1237 -242Q1201 -260 1112 -260Q996 -260 842 -158Q687
-52 578 -25Q422 -24 317 40T165 216T117 481Q117 736 211 947T449 1282Q535 1356 637 1396T889 1436Q1111 1436 1232 1305T1354 940ZM1094 981Q1094 1253 848 1253Q760 1253 686 1215T561 1110Q480 1002 426 801T371 438Q371 156 623 156Q778 156 879 268Q972
372 1033 588T1094 981Z" />
<glyph unicode="R" glyph-name="R" horiz-adv-x="1210" d="M1194 1098Q1194 999 1161 914T1069 769T935 672T772 625Q766 623 752 623Q818 563 881 440Q914 376 975 218T1053 10L797 -10Q788 12 749 117T705 233Q669 330 634 401T578 503T528 569Q508 594 490
602T442 610L311 0H76L377 1415H811Q1000 1415 1097 1334T1194 1098ZM942 1051Q942 1142 889 1183T723 1225H573L479 778H594Q687 778 741 791T838 838Q883 874 912 933T942 1051Z" />
<glyph unicode="S" glyph-name="S" horiz-adv-x="1169" d="M1212 1319L1077 1153Q1004 1208 931 1232T764 1257Q649 1257 571 1198T492 1053Q492 989 525 949T643 877L801 819Q934 770 996 689T1059 483Q1059 377 1015 284T889 122T686 12T418 -29Q171 -29 -14
92L106 274Q195 218 276 192T461 166Q610 166 699 237T788 422Q788 490 750 534T621 614L479 668Q351 716 290 788T229 981Q229 1112 304 1220T510 1390T799 1452Q919 1452 1028 1417T1212 1319Z" />
<glyph unicode="T" glyph-name="T" horiz-adv-x="1046" d="M1223 1415L1149 1221H793L535 0H297L557 1221H197L238 1415H1223Z" />
<glyph unicode="U" glyph-name="U" horiz-adv-x="1306" d="M1354 1415L1149 449Q1116 295 1081 222T969 92Q895 38 803 6T563 -27Q370 -27 258 53T145 279Q145 353 164 446L371 1415H608L412 496Q382 357 391 305Q400 243 454 210T598 176T755 211T860 307Q895
362 920 483L1118 1415H1354Z" />
<glyph unicode="V" glyph-name="V" horiz-adv-x="1193" d="M1384 1415L594 -6H375L197 1415H446L537 604Q553 467 549 328Q596 433 694 616L1133 1415H1384Z" />
<glyph unicode="W" glyph-name="W" horiz-adv-x="1718" d="M1886 1415L1249 -4H977L971 659Q969 813 991 1094Q882 792 829 668L545 -4H270L236 1415H479L481 741Q481 580 461 285Q566 576 631 725L932 1415H1190V700Q1190 590 1186 459T1176 295Q1196 357 1251
501T1354 756L1636 1415H1886Z" />
<glyph unicode="X" glyph-name="X" horiz-adv-x="1148" d="M1274 1415L762 743L1047 0H772L588 541L195 0H-102L502 762L252 1415H522L672 969L991 1415H1274Z" />
<glyph unicode="Y" glyph-name="Y" horiz-adv-x="1116" d="M1325 1415L690 569L567 0H324L446 573L178 1415H453L573 963Q600 863 608 791Q614 799 654 861T721 961L1040 1415H1325Z" />
<glyph unicode="Z" glyph-name="Z" horiz-adv-x="1038" d="M1145 1239L397 305Q379 282 359 260T320 218T297 193Q341 197 426 197H934L854 0H-25L0 170L754 1094Q822 1176 868 1225Q832 1221 723 1221H256L332 1415H1163L1145 1239Z" />
<glyph unicode="[" glyph-name="bracketleft" horiz-adv-x="559" d="M651 1499L616 1341H430L111 -162H299L264 -319H-125L262 1499H651Z" />
<glyph unicode="\" glyph-name="backslash" horiz-adv-x="800" d="M686 -47L483 -92L203 1495L410 1538L686 -47Z" />
<glyph unicode="]" glyph-name="bracketright" horiz-adv-x="573" d="M731 1499L344 -319H-47L-12 -162H174L494 1341H305L340 1499H731Z" />
<glyph unicode="^" glyph-name="asciicircum" horiz-adv-x="1363" d="M1235 641H1008L842 1229L430 641H199L778 1450H999L1235 641Z" />
<glyph unicode="_" glyph-name="underscore" horiz-adv-x="1024" d="M891 -154L864 -264H-160L-135 -154H891Z" />
<glyph unicode="`" glyph-name="grave" horiz-adv-x="692" d="M772 1274L696 1147L248 1352L362 1544L772 1274Z" />
<glyph unicode="a" glyph-name="a" horiz-adv-x="1048" d="M1008 983Q973 878 946 745L862 336Q843 241 851 193T899 102L715 -35Q637 28 637 135Q519 -25 326 -25Q201 -25 128 59T55 305Q55 476 114 632T274 893Q439 1061 686 1061Q887 1061 1008 983ZM756 862Q719
883 659 883Q585 883 532 859T422 768Q357 690 322 561T287 311Q287 229 314 193T399 156Q468 156 538 214T645 354L756 862Z" />
<glyph unicode="b" glyph-name="b" horiz-adv-x="1126" d="M1063 709Q1063 522 989 357T786 86Q650 -27 473 -27Q357 -27 247 2T66 86Q87 148 106 238L297 1141Q340 1344 313 1442L547 1520Q577 1405 535 1208L502 1055Q483 964 459 893Q514 966 602 1013T784
1061Q924 1061 993 970T1063 709ZM817 711Q817 872 698 872Q629 872 558 821T424 680L322 201Q378 147 494 147Q558 147 613 187T704 289T767 428T805 577T817 711Z" />
<glyph unicode="c" glyph-name="c" horiz-adv-x="890" d="M928 956L805 805Q729 881 627 881Q530 881 459 797Q403 729 359 589T315 330Q315 239 355 192T469 145Q583 145 705 254L786 113Q699 42 612 9T420 -25Q248 -25 160 66T72 330Q72 509 148 680T336 944Q478
1065 664 1065Q822 1065 928 956Z" />
<glyph unicode="d" glyph-name="d" horiz-adv-x="1132" d="M1167 1470L932 360Q909 254 903 187T901 87T922 27L729 -18Q684 35 690 131Q567 -20 385 -20Q80 -20 80 336Q80 494 140 647T307 907Q380 978 471 1015T653 1053Q788 1053 852 1020Q852 1028 862 1080T879
1159L952 1507L1167 1470ZM807 829Q746 870 645 870Q594 870 544 846T457 776Q396 702 356 572T315 332Q315 160 440 160Q505 160 580 212T702 344L807 829Z" />
<glyph unicode="e" glyph-name="e" horiz-adv-x="1036" d="M985 784Q985 659 893 569Q759 438 453 438Q419 438 376 442T328 446Q315 381 315 338Q315 244 365 196T504 147Q653 147 797 260L866 121Q771 44 672 9T444 -27Q275 -27 176 72T76 352Q76 508 138 662T307
920Q455 1061 657 1061Q811 1061 898 991T985 784ZM758 770Q758 826 727 859T629 893Q538 893 468 821T365 606Q368 606 401 603T455 600Q648 600 715 668Q758 711 758 770Z" />
<glyph unicode="f" glyph-name="f" horiz-adv-x="614" d="M918 1444L823 1296Q759 1335 696 1335Q635 1335 593 1297T539 1190L510 1036H782L688 877H481L307 -12Q257 -274 90 -444L-61 -328Q-13 -270 27 -186T86 -6L260 877H158L190 1036H289L313 1178Q348 1368
492 1454Q572 1503 698 1503Q827 1503 918 1444Z" />
<glyph unicode="g" glyph-name="g" horiz-adv-x="1132" d="M1077 983Q1050 902 1030 809L922 303Q903 216 882 100T854 -49Q830 -155 780 -231T657 -351T499 -414T309 -434Q110 -434 -53 -342L25 -182Q152 -260 328 -260Q458 -260 529 -210T629 -49Q630 -44 646
23T666 102Q552 -23 381 -23Q76 -23 76 330Q76 493 139 654T307 911Q475 1063 694 1063Q819 1063 905 1045T1077 983ZM815 850Q767 879 676 879Q620 879 561 853T463 782Q400 710 357 577T313 336Q313 156 449 156Q518 156 587 206T705 340L815 850Z" />
<glyph unicode="h" glyph-name="h" horiz-adv-x="1126" d="M1053 860Q1053 805 1036 733L881 0H659L807 698Q819 764 819 784Q816 872 723 872Q660 872 573 816T420 676L276 0H53L295 1139Q339 1339 313 1442L543 1520Q558 1471 553 1376T526 1182L496 1038Q468
924 455 883Q527 968 626 1015T821 1063Q933 1063 993 1008T1053 860Z" />
<glyph unicode="i" glyph-name="i" horiz-adv-x="538" d="M600 1337Q600 1274 557 1230T451 1186Q389 1186 345 1230T301 1335Q301 1398 345 1442T453 1487Q514 1487 557 1443T600 1337ZM504 1059L281 0H51L268 1024L504 1059Z" />
<glyph unicode="j" glyph-name="j" horiz-adv-x="544" d="M606 1343Q604 1282 561 1238T455 1194T349 1237T305 1343Q307 1406 351 1450T459 1495Q521 1495 564 1451T606 1343ZM508 1061L289 29Q242 -186 154 -283Q71 -373 -76 -430L-150 -295Q-64 -258 -12 -184Q36
-117 66 27L276 1022L508 1061Z" />
<glyph unicode="k" glyph-name="k" horiz-adv-x="1040" d="M1081 1014L641 586L952 14L700 -14L412 592L840 1055L1081 1014ZM547 1520Q580 1412 524 1149L279 0H53L297 1145Q340 1340 313 1442L547 1520Z" />
<glyph unicode="l" glyph-name="l" horiz-adv-x="573" d="M541 1520Q554 1474 549 1371T522 1174L344 338Q319 224 319 193Q319 137 369 137Q393 137 403 141L416 4Q346 -23 264 -23Q177 -23 131 20T84 137Q84 186 104 283L287 1137Q331 1352 303 1442L541 1520Z" />
<glyph unicode="m" glyph-name="m" horiz-adv-x="1617" d="M1534 852Q1534 809 1518 723L1364 0H1143L1292 700Q1305 760 1305 795Q1305 833 1286 850T1223 868Q1166 868 1094 816T961 678L815 0H598L743 688Q762 766 762 799Q762 834 745 851T688 868Q631 868
558 818T416 676L272 0H55L209 723Q240 877 211 983L420 1069Q436 1033 440 980T436 877Q607 1059 791 1059Q877 1059 924 1013T975 877Q1148 1061 1333 1061Q1424 1061 1479 1005T1534 852Z" />
<glyph unicode="n" glyph-name="n" horiz-adv-x="1107" d="M1016 854Q1016 785 1006 741L848 0H625L770 686Q784 749 784 786Q784 830 765 849T702 868Q642 868 568 822T418 676L274 0H53L205 717Q223 809 224 867T209 983L418 1069Q457 977 436 874Q511 964 606
1011T809 1059Q905 1059 960 1004T1016 854Z" />
<glyph unicode="o" glyph-name="o" horiz-adv-x="1099" d="M1026 696Q1026 553 986 424T873 194T685 34T432 -25Q260 -25 166 71T72 346Q72 544 146 707T355 965T659 1061Q836 1061 931 965T1026 696ZM782 705Q782 889 625 889Q552 889 491 835T392 695T334 514T313
326Q313 145 473 145Q545 145 605 196T703 330T761 510T782 705Z" />
<glyph unicode="p" glyph-name="p" horiz-adv-x="1120" d="M1061 719Q1061 576 1005 409T864 145Q792 66 696 22T500 -23Q354 -23 274 23Q274 9 258 -68L190 -387L-39 -440L209 727Q228 826 227 877T209 983L418 1069Q434 1036 440 986T440 881Q507 962 601 1009T788
1057Q919 1057 990 967T1061 719ZM817 711Q817 792 789 829T698 866Q633 866 559 817T418 674L317 203Q341 179 388 165T487 150Q553 150 605 181T692 260Q748 342 782 474T817 711Z" />
<glyph unicode="q" glyph-name="q" horiz-adv-x="1114" d="M1075 981Q1039 874 1012 741L772 -385L547 -438L629 -49Q662 92 672 117Q610 48 531 13T367 -23Q74 -23 74 322Q74 486 135 645T297 901Q464 1063 713 1063Q948 1063 1075 981ZM819 860Q778 881 670
881Q571 881 477 801Q401 736 356 593T313 336Q316 156 449 156Q595 156 709 348L819 860Z" />
<glyph unicode="r" glyph-name="r" horiz-adv-x="698" d="M829 1044L731 831Q705 848 659 848Q547 848 418 666L276 0H53L201 692Q223 794 224 863T209 983L418 1069Q457 975 434 866Q505 957 587 1009T743 1061Q790 1061 829 1044Z" />
<glyph unicode="s" glyph-name="s" horiz-adv-x="944" d="M922 983L831 825Q705 897 584 897Q499 897 447 865T395 770Q395 728 420 700T506 649L629 602Q840 521 840 356Q840 190 711 80T360 -31Q149 -31 -23 78L68 244Q135 197 220 169T391 141T533 184T590
291Q590 339 561 368T459 426L340 471Q243 508 194 567T145 719Q145 864 264 967T598 1071Q687 1071 772 1047T922 983Z" />
<glyph unicode="t" glyph-name="t" horiz-adv-x="673" d="M741 1036L657 877H459L342 319Q330 262 330 219Q330 171 352 152T426 133Q485 133 530 154V14Q421 -29 315 -29Q212 -29 155 18T98 145Q98 217 113 287L238 877H121L154 1036H270Q305 1193 338 1288L578
1343Q521 1171 494 1036H741Z" />
<glyph unicode="u" glyph-name="u" horiz-adv-x="1093" d="M1059 1057L895 291Q863 143 920 59L731 -39Q667 35 670 139Q511 -31 330 -31Q216 -31 154 23T92 180Q92 252 111 338L254 1018L485 1061L342 381Q322 293 322 244Q322 196 343 171T403 145Q471 145 553
203T688 348L831 1014L1059 1057Z" />
<glyph unicode="v" glyph-name="v" horiz-adv-x="970" d="M1063 1034L459 -4H262L106 1024L336 1059L403 485Q416 388 416 266L418 270Q460 379 522 492L819 1036L1063 1034Z" />
<glyph unicode="w" glyph-name="w" horiz-adv-x="1443" d="M1540 1036L1024 -4H817L793 381Q774 657 784 768H780Q764 721 748 686L633 434L422 -4H211L145 1022L371 1055L379 535Q380 486 379 420T375 313L373 272H375Q406 367 492 545L733 1036H952L975 545Q977
501 977 270H979Q1041 439 1079 526L1303 1036H1540Z" />
<glyph unicode="x" glyph-name="x" horiz-adv-x="978" d="M1032 1036L614 551L881 0H614Q603 32 566 124T499 294T465 389Q453 367 329 212T156 0H-133L377 565L170 1010L414 1053Q434 1003 478 883T532 727Q570 790 762 1036H1032Z" />
<glyph unicode="y" glyph-name="y" horiz-adv-x="987" d="M1100 1036L553 59Q451 -123 390 -212T260 -348Q158 -420 18 -442L-29 -291Q62 -276 154 -213Q203 -179 236 -133T313 0L242 -4Q242 124 217 322L127 1022L360 1055L418 426Q426 322 426 193H428Q462 279
555 463L854 1036H1100Z" />
<glyph unicode="z" glyph-name="z" horiz-adv-x="909" d="M928 877L276 162H782L702 0H-35L-25 150L647 872H190L207 1036H934L928 877Z" />
<glyph unicode="{" glyph-name="braceleft" horiz-adv-x="747" d="M905 1499L864 1313H760Q721 1313 693 1301T649 1266T625 1221T610 1169L539 825Q496 620 297 592L295 590Q295 588 297 588Q481 566 436 354L365 10Q359 -24 357 -56T378 -110T453 -133H557L518
-319H334Q231 -319 177 -247T152 -39L225 315Q234 356 226 387T200 439T157 473T108 492T63 498L102 682Q141 682 187 698T281 757T342 862L418 1221Q447 1357 532 1428T721 1499H905Z" />
<glyph unicode="|" glyph-name="bar" horiz-adv-x="454" d="M557 1548L219 -37H14L352 1548H557Z" />
<glyph unicode="}" glyph-name="braceright" horiz-adv-x="749" d="M739 682L700 498Q671 498 637 489T565 459T498 402T459 315L385 -41Q357 -177 273 -248T82 -319H-102L-61 -133H43Q81 -133 109 -121T153 -85T177 -41T193 10L264 352Q308 565 506 588L508 592Q488
594 471 599T432 614T396 641T369 682T356 743T365 825L438 1169Q444 1205 445 1237T424 1291T350 1313H246L285 1499H473Q572 1499 626 1427T651 1219L575 862Q566 822 574 792T600 741T643 707T693 688T739 682Z" />
<glyph unicode="~" glyph-name="asciitilde" horiz-adv-x="1363" d="M1192 625Q1104 518 1033 484T879 449Q796 453 676 520Q667 525 648 535T622 550T599 561T576 571T554 578T529 583T502 584Q433 584 384 550T283 453L229 608V612Q376 793 528 793Q573 793
618 778T741 723Q751 718 774 706T805 690T832 677T860 666T885 658T913 653T942 651Q997 651 1041 682T1143 784L1192 625Z" />
</font>
</defs>
</svg>
